<svg width="300" height="300" viewBox="0 0 300 300" fill="none"
  xmlns="http://www.w3.org/2000/svg">
  <path d="M225 150V150.3V150.7V151V151.3L225.1 151.7V152V152.3L225.2 152.7V153L225.3 153.3L225.4 153.7V154L225.5 154.4L225.6 154.7L225.7 155.1V155.5L225.8 155.8L225.9 156.2L226 156.6L226.1 156.9L226.3 157.3L226.4 157.7L226.5 158.1L226.6 158.5L226.7 158.9L226.9 159.3L227 159.8L227.1 160.2L227.3 160.6L227.4 161L227.6 161.5L227.7 161.9L227.9 162.4L228 162.9L228.2 163.4L228.4 163.8L228.5 164.3L228.7 164.8L228.9 165.3L229 165.9L229.2 166.4L229.3 166.9L229.5 167.5L229.7 168L229.8 168.6L230 169.2L230.2 169.7L230.3 170.3L230.5 170.9L230.7 171.5L230.8 172.2L231 172.8L231.1 173.4L231.3 174.1L231.4 174.7L231.6 175.4L231.7 176.1L231.8 176.8L232 177.5L232.1 178.2L232.2 178.9L232.3 179.7L232.5 180.4L232.6 181.2L232.7 181.9L232.8 182.7V183.5L232.9 184.3L233 185.1L233.1 185.9V186.7L233.2 187.5V188.4V189.2L233.3 190.1V191V191.8V192.7L233.2 193.6V194.5V195.4L233.1 196.4V197.3L233 198.2L232.9 199.2L232.8 200.2L232.7 201.1L232.6 202.1L232.5 203.1L232.3 204.1L232.1 205L232 206L231.8 207.1L231.6 208.1L231.4 209.1L231.1 210.1L230.9 211.1L230.6 212.2L230.3 213.2L230 214.3L229.7 215.3L229.4 216.4L229 217.4L228.7 218.5L228.3 219.6L227.9 220.6L227.5 221.7L227.1 222.8L226.6 223.8L226.2 224.9L225.7 226L225.2 227.1L224.7 228.1L224.1 229.2L223.6 230.3L223 231.4L222.4 232.5L221.8 233.5L221.2 234.6L220.5 235.7L219.9 236.8L219.2 237.8L218.5 238.9L217.8 240L217 241L216.3 242.1L215.5 243.1L214.7 244.2L213.9 245.2L213 246.3L212.2 247.3L211.3 248.3L210.4 249.3L209.5 250.3L208.6 251.4L207.6 252.3L206.7 253.3L205.7 254.3L204.7 255.3L203.6 256.2L202.6 257.2L201.5 258.1L200.4 259.1L199.3 260L198.2 260.9L197.1 261.8L195.9 262.7L194.7 263.5L193.6 264.4L192.3 265.2L191.1 266.1L189.9 266.9L188.6 267.7L187.3 268.5L186 269.3L184.7 270L183.4 270.8L182 271.5L180.7 272.2L179.3 272.9L177.9 273.6L176.5 274.2L175.1 274.9L173.7 275.5L172.2 276.1L170.7 276.7L169.3 277.2L167.8 277.8L166.3 278.3L164.7 278.8L163.2 279.3L161.7 279.7L160.1 280.2L158.5 280.6L157 281L155.4 281.4L153.8 281.7L152.2 282.1L150.6 282.4L148.9 282.7L147.3 282.9L145.6 283.2L144 283.4L142.3 283.6L140.7 283.8L139 283.9L137.3 284L135.6 284.1L133.9 284.2H132.2L130.5 284.3H128.8L127.1 284.2H125.4L123.6 284.1L121.9 284L120.2 283.9L118.4 283.7L116.7 283.5L115 283.3L113.2 283.1L111.5 282.8L109.8 282.5L108 282.2L106.3 281.9L104.6 281.5L102.9 281.1L101.1 280.7L99.4 280.3L97.7 279.8L96 279.3L94.3 278.8L92.6 278.2L90.9 277.7L89.2 277.1L87.5 276.4L85.8 275.8L84.1 275.1L82.5 274.4L80.8 273.7L79.2 272.9L77.5 272.1L75.9 271.3L74.3 270.5L72.7 269.6L71.0999 268.7L69.5 267.8L67.9 266.9L66.2999 265.9L64.7999 264.9L63.2 263.9L61.7 262.9L60.2 261.8L58.7 260.8L57.2 259.7L55.7999 258.5L54.2999 257.4L52.9 256.2L51.5 255L50.0999 253.8L48.7 252.6L47.2999 251.3L46 250L44.5999 248.7L43.2999 247.4L42 246.1L40.7999 244.7L39.5 243.3L38.2999 241.9L37.1 240.5L35.9 239.1L34.7 237.6L33.6 236.2L32.4 234.7L31.2999 233.2L30.2 231.6L29.2 230.1L28.2 228.5L27.1 227L26.1 225.4L25.2 223.8L24.2 222.2L23.3 220.5L22.4 218.9L21.6 217.2L20.7 215.6L19.9 213.9L19.1 212.2L18.3 210.5L17.6 208.8L16.9 207.1L16.2 205.3L15.5 203.6L14.9 201.8L14.3 200.1L13.7 198.3L13.1 196.5L12.6 194.7L12.1 192.9L11.6 191.1L11.2 189.3L10.7 187.5L10.4 185.7L9.99995 183.9L9.59995 182.1L9.29995 180.3L8.99995 178.4L8.79995 176.6L8.59995 174.8L8.39995 172.9L8.19995 171.1L7.99995 169.3L7.89995 167.4L7.79995 165.6V163.8L7.69995 161.9V160.1V158.3L7.79995 156.4V154.6L7.89995 152.8L8.09995 151L8.19995 149.2L8.39995 147.4L8.59995 145.6L8.79995 143.8L9.09995 142L9.39995 140.2L9.69995 138.4L9.99995 136.7L10.4 134.9L10.8 133.2L11.2 131.4L11.6 129.7L12.1 128L12.6 126.3L13.1 124.6L13.6 122.9L14.2 121.2L14.7 119.5L15.3 117.9L16 116.3L16.6 114.6L17.3 113L18 111.4L18.7 109.8L19.4 108.3L20.2 106.7L21 105.2L21.8 103.6L22.6 102.1L23.5 100.6L24.2999 99.2L25.2 97.7L26.1 96.3L27 94.8L27.9 93.4L28.9 92L29.9 90.7L30.9 89.3L31.9 88L32.9 86.7L33.9 85.4L35 84.1L36.1 82.8L37.1 81.6L38.2 80.4L39.4 79.2L40.5 78L41.5999 76.8L42.7999 75.7L43.9 74.6L45.0999 73.5L46.2999 72.4L47.5 71.3L48.7 70.3L49.9 69.3L51.2 68.3L52.4 67.3L53.7 66.4L54.9 65.5L56.2 64.6L57.5 63.7L58.7999 62.8L60 62L61.2999 61.2L62.5999 60.4L64 59.6L65.2999 58.9L66.5999 58.1L67.9 57.4L69.2 56.8L70.5999 56.1L71.9 55.5L73.2 54.8L74.6 54.2L75.9 53.7L77.3 53.1L78.6 52.6L80 52.1L81.3 51.6L82.7 51.1L84 50.7L85.3 50.3L86.7 49.9L88 49.5L89.4 49.1L90.7 48.8L92 48.5L93.4 48.2L94.7 47.9L96 47.6L97.4 47.4L98.7 47.2L100 47L101.3 46.8L102.6 46.6L103.9 46.5L105.2 46.4L106.5 46.3L107.8 46.2L109 46.1H110.3L111.6 46H112.8H114.1L115.3 46.1H116.5H117.7L118.9 46.2L120.1 46.3L121.3 46.4L122.5 46.5L123.7 46.6L124.8 46.8L126 46.9L127.1 47.1L128.3 47.3L129.4 47.5L130.5 47.7L131.6 47.9L132.7 48.2L133.7 48.4L134.8 48.7L135.8 48.9L136.9 49.2L137.9 49.5L138.9 49.8L139.9 50.1L140.9 50.5L141.9 50.8L142.8 51.1L143.8 51.5L144.7 51.8L145.6 52.2L146.5 52.6L147.4 53L148.3 53.4L149.2 53.8L150.1 54.2L150.9 54.6L151.7 55L152.6 55.4L153.4 55.8L154.2 56.3L154.9 56.7L155.7 57.1L156.5 57.6L157.2 58L157.9 58.5L158.7 58.9L159.4 59.4L160 59.9L160.7 60.3L161.4 60.8L162 61.2L162.7 61.7L163.3 62.2L163.9 62.6L164.5 63.1L165.1 63.6L165.7 64L166.3 64.5L166.8 65L167.4 65.4L167.9 65.9L168.5 66.4L169 66.8L169.5 67.3L170 67.8L170.5 68.2L170.9 68.7L171.4 69.1L171.9 69.6L172.3 70L172.7 70.4L173.2 70.9L173.6 71.3L174 71.7L174.4 72.2L174.8 72.6L175.2 73L175.6 73.4L175.9 73.8L176.3 74.2L176.6 74.6L177 75L177.3 75.4L177.7 75.7L178 76.1L178.3 76.5L178.6 76.8L179 77.2L179.3 77.6L179.6 77.9L179.9 78.2L180.2 78.6L180.5 78.9L180.8 79.2L181 79.5L181.3 79.8L181.6 80.1L181.9 80.4L182.2 80.7L182.4 81L182.7 81.3L183 81.5L183.3 81.8L183.5 82L183.8 82.3L184.1 82.5L184.3 82.8L184.6 83L184.9 83.2L185.1 83.4L185.4 83.6L185.7 83.8L185.9 84L186.2 84.2L186.5 84.4L186.8 84.6L187 84.8L187.3 84.9L187.6 85.1L187.9 85.3L188.2 85.4L188.5 85.6L188.8 85.7L189.1 85.9L189.4 86L189.7 86.1L190 86.3L190.3 86.4L190.7 86.5L191 86.6L191.3 86.7L191.7 86.9L192 87L192.4 87.1L192.7 87.2L193.1 87.3L193.5 87.4L193.9 87.5L194.2 87.6L194.6 87.7L195 87.8L195.4 87.9H195.8L196.3 88L196.7 88.1L197.1 88.2L197.6 88.3L198 88.4L198.5 88.5L198.9 88.6L199.4 88.7L199.9 88.8L200.4 88.9L200.9 89L201.4 89.1L201.9 89.2L202.4 89.3L202.9 89.4L203.5 89.5L204 89.7L204.6 89.8L205.1 89.9L205.7 90.1L206.2 90.2L206.8 90.3L207.4 90.5L208 90.7L208.6 90.8L209.2 91L209.9 91.2L210.5 91.3L211.1 91.5L211.8 91.7L212.4 91.9L213.1 92.2L213.7 92.4L214.4 92.6L215.1 92.9L215.8 93.1L216.4 93.4L217.1 93.6L217.8 93.9L218.5 94.2L219.3 94.5L220 94.8L220.7 95.1L221.4 95.5L222.2 95.8L222.9 96.2L223.6 96.5L224.4 96.9L225.1 97.3L225.9 97.7L226.7 98.1L227.4 98.5L228.2 99L228.9 99.4L229.7 99.9L230.5 100.4L231.3 100.9L232 101.4L232.8 101.9L233.6 102.5L234.4 103L235.2 103.6L235.9 104.2L236.7 104.8L237.5 105.4L238.3 106L239.1 106.6L239.8 107.3L240.6 108L241.4 108.7L242.2 109.4L242.9 110.1L243.7 110.8L244.5 111.6L245.2 112.4L246 113.1L246.7 113.9L247.5 114.8L248.2 115.6L249 116.4L249.7 117.3L250.4 118.2L251.1 119.1L251.8 120L252.5 120.9L253.2 121.9L253.9 122.8L254.6 123.8L255.3 124.8L256 125.8L256.6 126.8L257.3 127.9L257.9 128.9L258.5 130L259.1 131.1L259.7 132.2L260.3 133.3L260.9 134.4L261.5 135.6L262 136.8L262.6 137.9L263.1 139.1L263.6 140.3L264.1 141.6L264.6 142.8L265.1 144L265.5 145.3L266 146.6L266.4 147.9L266.8 149.2L267.2 150.5L267.6 151.8L268 153.1L268.3 154.5L268.6 155.9L268.9 157.2L269.2 158.6L269.5 160L269.8 161.4L270 162.8L270.2 164.3L270.4 165.7L270.6 167.1L270.8 168.6L270.9 170.1L271 171.5L271.1 173L271.2 174.5L271.3 176V177.5V179V180.5V182.1L271.2 183.6L271.1 185.1L271 186.7L270.9 188.2L270.8 189.8L270.6 191.3L270.4 192.9L270.2 194.4L270 196L269.7 197.6L269.4 199.1L269.1 200.7L268.8 202.3L268.4 203.8L268 205.4L267.6 207L267.2 208.5L266.8 210.1L266.3 211.7L265.8 213.2L265.3 214.8L264.7 216.3L264.1 217.9L263.5 219.4L262.9 221L262.3 222.5L261.6 224.1L260.9 225.6L260.2 227.1L259.4 228.6L258.6 230.1L257.9 231.6L257 233.1L256.2 234.6L255.3 236.1L254.4 237.6L253.5 239L252.6 240.5L251.6 241.9L250.6 243.3L249.6 244.8L248.6 246.2L247.5 247.5L246.5 248.9L245.4 250.3L244.2 251.6L243.1 253L241.9 254.3L240.7 255.6L239.5 256.9L238.3 258.2L237 259.5L235.7 260.7L234.5 261.9L233.1 263.1L231.8 264.3L230.4 265.5L229.1 266.7L227.7 267.8L226.3 268.9L224.8 270L223.4 271.1L221.9 272.2L220.4 273.2L218.9 274.2L217.4 275.2L215.8 276.2L214.3 277.2L212.7 278.1L211.1 279L209.5 279.9L207.9 280.8L206.3 281.6L204.6 282.4L203 283.2L201.3 284L199.6 284.7L197.9 285.5L196.2 286.1L194.5 286.8L192.7 287.5L191 288.1L189.2 288.7L187.5 289.3L185.7 289.8L183.9 290.3L182.1 290.8L180.3 291.3L178.5 291.7L176.7 292.1L174.9 292.5L173 292.9L171.2 293.2L169.4 293.5L167.5 293.8L165.7 294L163.8 294.2L161.9 294.4L160.1 294.6L158.2 294.7L156.4 294.8L154.5 294.9L152.6 295H150.7H148.9H147L145.1 294.9L143.3 294.8L141.4 294.7L139.5 294.6L137.7 294.4L135.8 294.2L134 294L132.1 293.7L130.3 293.4L128.4 293.1L126.6 292.8L124.8 292.4L122.9 292L121.1 291.6L119.3 291.2L117.5 290.7L115.7 290.2L113.9 289.7L112.2 289.1L110.4 288.6L108.7 288L106.9 287.3L105.2 286.7L103.5 286L101.7 285.3L100.1 284.6L98.4 283.8L96.7 283.1L95 282.3L93.4 281.4L91.8 280.6L90.1 279.7L88.5 278.8L87 277.9L85.4 277L83.8 276L82.3 275L80.8 274L79.3 273L77.8 272L76.3 270.9L74.9 269.8L73.5 268.7L72 267.6L70.7 266.4L69.2999 265.3L67.9 264.1L66.5999 262.9L65.2999 261.7L64 260.4L62.7 259.2L61.5 257.9L60.2 256.6L59 255.4L57.7999 254L56.7 252.7L55.5 251.4L54.4 250L53.2999 248.6L52.2999 247.3L51.2 245.9L50.2 244.5L49.2 243L48.2 241.6L47.2 240.2L46.2999 238.7L45.4 237.3L44.5 235.8L43.5999 234.3L42.7999 232.8L42 231.3L41.2 229.8L40.4 228.3L39.7 226.8L39 225.3L38.2999 223.7L37.6 222.2L37 220.7L36.2999 219.1L35.7999 217.6L35.2 216L34.6 214.5L34.1 212.9L33.6 211.3L33.1 209.8L32.7 208.2L32.2999 206.6L31.9 205.1L31.5 203.5L31.2 201.9L30.7999 200.4L30.5 198.8L30.2 197.2L30 195.7L29.7999 194.1L29.5 192.6L29.4 191L29.2 189.5L29.1 187.9L28.9 186.4V184.8L28.7999 183.3L28.7 181.8V180.2V178.7V177.2L28.7999 175.7V174.2L28.9 172.7L29 171.2L29.1 169.8L29.2999 168.3L29.4 166.9L29.6 165.4L29.7999 164L30 162.5L30.2999 161.1L30.5 159.7L30.7999 158.3L31.1 156.9L31.4 155.6L31.7999 154.2L32.1 152.9L32.5 151.5L32.9 150.2L33.2999 148.9L33.7 147.6L34.1 146.3L34.6 145L35 143.8L35.5 142.5L36 141.3L36.5 140.1L37 138.9L37.5 137.7L38.1 136.5L38.6 135.4L39.2 134.2L39.7999 133.1L40.4 132L41 130.9L41.5999 129.8L42.2 128.7L42.9 127.7L43.5 126.6L44.2 125.6L44.9 124.6L45.5 123.6L46.2 122.6L46.9 121.7L47.5999 120.7L48.2999 119.8L49 118.9L49.7 118L50.5 117.1L51.2 116.3L51.9 115.4L52.7 114.6L53.4 113.8L54.2 113L54.9 112.2L55.7 111.4L56.5 110.7L57.2 109.9L58 109.2L58.7999 108.5L59.5 107.8L60.2999 107.2L61.0999 106.5L61.9 105.9L62.7 105.3L63.4 104.6L64.2 104L65 103.5L65.7999 102.9L66.5999 102.4L67.2999 101.8L68.0999 101.3L68.9 100.8L69.7 100.3L70.4 99.8L71.1999 99.3L72 98.9L72.7 98.5L73.5 98L74.3 97.6L75 97.2L75.8 96.8L76.5 96.4L77.3 96.1L78 95.7L78.7 95.4L79.5 95.1L80.2 94.7L80.9 94.4L81.6 94.1L82.3 93.9L83 93.6L83.7 93.3L84.4 93.1L85.1 92.8L85.7 92.6L86.4 92.3L87.1 92.1L87.7 91.9L88.4 91.7L89 91.5L89.6 91.3L90.3 91.1L90.9 91L91.5 90.8L92.1 90.6L92.7 90.5L93.3 90.3L93.9 90.2L94.4 90L95 89.9L95.6 89.8L96.1 89.6L96.7 89.5L97.2 89.4L97.7 89.3L98.2 89.2L98.7 89.1L99.2 89L99.7 88.9L100.2 88.8L100.7 88.7L101.2 88.6L101.6 88.5L102.1 88.4L102.5 88.3L103 88.2L103.4 88.1L103.8 88L104.2 87.9L104.6 87.8L105.1 87.7L105.4 87.6H105.8L106.2 87.5L106.6 87.4L107 87.3L107.3 87.2L107.7 87.1L108 86.9L108.4 86.8L108.7 86.7L109.1 86.6L109.4 86.5L109.7 86.4L110 86.2L110.4 86.1L110.7 86L111 85.8L111.3 85.7L111.6 85.6L111.9 85.4L112.2 85.2L112.4 85.1L112.7 84.9L113 84.7L113.3 84.6L113.6 84.4L113.8 84.2L114.1 84L114.4 83.8L114.7 83.6L114.9 83.4L115.2 83.2L115.5 82.9L115.7 82.7L116 82.5L116.3 82.2L116.5 82L116.8 81.7L117.1 81.5L117.3 81.2L117.6 80.9L117.9 80.6L118.2 80.4L118.4 80.1L118.7 79.8L119 79.5L119.3 79.1L119.6 78.8L119.9 78.5L120.2 78.2L120.5 77.8L120.8 77.5L121.1 77.1L121.4 76.8L121.7 76.4L122.1 76L122.4 75.7L122.7 75.3L123.1 74.9L123.4 74.5L123.8 74.1L124.2 73.7L124.5 73.3L124.9 72.9L125.3 72.5L125.7 72.1L126.1 71.6L126.5 71.2L126.9 70.8L127.4 70.3L127.8 69.9L128.2 69.5L128.7 69L129.2 68.6L129.6 68.1L130.1 67.7L130.6 67.2L131.1 66.7L131.6 66.3L132.2 65.8L132.7 65.4L133.3 64.9L133.8 64.4L134.4 64L135 63.5L135.6 63L136.2 62.6L136.8 62.1L137.4 61.6L138.1 61.2L138.7 60.7L139.4 60.2L140.1 59.8L140.8 59.3L141.5 58.8L142.2 58.4L142.9 57.9L143.7 57.5L144.4 57.1L145.2 56.6L146 56.2L146.8 55.7L147.6 55.3L148.4 54.9L149.3 54.5L150.1 54.1L151 53.7L151.9 53.3L152.7 52.9L153.6 52.5L154.6 52.1L155.5 51.8L156.4 51.4L157.4 51.1L158.3 50.7L159.3 50.4L160.3 50.1L161.3 49.8L162.3 49.5L163.3 49.2L164.4 48.9L165.4 48.6L166.5 48.4L167.6 48.1L168.7 47.9L169.7 47.7L170.9 47.4L172 47.2L173.1 47.1L174.2 46.9L175.4 46.7L176.6 46.6L177.7 46.5L178.9 46.4L180.1 46.3L181.3 46.2L182.5 46.1H183.7L185 46H186.2H187.4L188.7 46.1H190H191.2L192.5 46.2L193.8 46.3L195.1 46.4L196.4 46.5L197.7 46.7L199 46.8L200.3 47L201.6 47.2L202.9 47.4L204.2 47.7L205.6 47.9L206.9 48.2L208.2 48.5L209.6 48.9L210.9 49.2L212.2 49.6L213.6 49.9L214.9 50.3L216.3 50.8L217.6 51.2L219 51.7L220.3 52.2L221.7 52.7L223 53.2L224.4 53.8L225.7 54.4L227 55L228.4 55.6L229.7 56.2L231 56.9L232.4 57.6L233.7 58.3L235 59L236.3 59.8L237.6 60.5L238.9 61.3L240.2 62.2L241.5 63L242.8 63.9L244.1 64.8L245.3 65.7L246.6 66.6L247.8 67.5L249.1 68.5L250.3 69.5L251.5 70.5L252.7 71.6L253.9 72.6L255.1 73.7L256.3 74.8L257.5 75.9L258.6 77.1L259.7 78.2L260.9 79.4L262 80.6L263.1 81.8L264.2 83.1L265.2 84.3L266.3 85.6L267.3 86.9L268.3 88.2L269.3 89.6L270.3 90.9L271.3 92.3L272.2 93.7L273.2 95.1L274.1 96.6L275 98L275.9 99.5L276.7 100.9L277.6 102.4L278.4 104L279.2 105.5L279.9 107L280.7 108.6L281.4 110.2L282.2 111.7L282.8 113.3L283.5 115L284.2 116.6L284.8 118.2L285.4 119.9L286 121.6L286.5 123.2L287 124.9L287.5 126.6L288 128.3L288.5 130.1L288.9 131.8L289.3 133.5L289.7 135.3L290.1 137L290.4 138.8L290.7 140.6L291 142.4L291.2 144.1L291.4 145.9L291.6 147.7L291.8 149.5L292 151.4L292.1 153.2L292.2 155V156.8L292.3 158.6V160.5V162.3L292.2 164.1V166L292.1 167.8L291.9 169.6L291.8 171.5L291.6 173.3L291.4 175.1L291.2 177L290.9 178.8L290.6 180.6L290.3 182.5L289.9 184.3L289.6 186.1L289.2 187.9L288.7 189.7L288.3 191.5L287.8 193.3L287.3 195.1L286.8 196.9L286.2 198.7L285.6 200.4L285 202.2L284.3 203.9L283.7 205.7L283 207.4L282.3 209.1L281.5 210.9L280.7 212.6L279.9 214.2L279.1 215.9L278.3 217.6L277.4 219.2L276.5 220.9L275.6 222.5L274.6 224.1L273.7 225.7L272.7 227.3L271.6 228.9L270.6 230.4L269.5 232L268.4 233.5L267.3 235L266.2 236.5L265.1 237.9L263.9 239.4L262.7 240.8L261.5 242.2L260.2 243.6L259 245L257.7 246.4L256.4 247.7L255.1 249L253.8 250.3L252.4 251.6L251 252.8L249.6 254.1L248.2 255.3L246.8 256.5L245.4 257.6L243.9 258.8L242.5 259.9L241 261L239.5 262.1L238 263.1L236.4 264.1L234.9 265.1L233.3 266.1L231.8 267.1L230.2 268L228.6 268.9L227 269.8L225.4 270.6L223.8 271.5L222.1 272.3L220.5 273L218.9 273.8L217.2 274.5L215.5 275.2L213.9 275.9L212.2 276.6L210.5 277.2L208.8 277.8L207.1 278.3L205.4 278.9L203.7 279.4L202 279.9L200.2 280.4L198.5 280.8L196.8 281.2L195.1 281.6L193.3 282L191.6 282.3L189.9 282.6L188.1 282.9L186.4 283.1L184.7 283.4L182.9 283.6L181.2 283.8L179.5 283.9L177.7 284L176 284.1L174.3 284.2H172.6L170.9 284.3H169.2L167.4 284.2H165.7L164.1 284.1L162.4 284L160.7 283.9L159 283.7L157.3 283.6L155.7 283.4L154 283.1L152.4 282.9L150.7 282.6L149.1 282.3L147.5 282L145.9 281.7L144.3 281.3L142.7 280.9L141.1 280.5L139.6 280.1L138 279.7L136.5 279.2L134.9 278.7L133.4 278.2L131.9 277.7L130.4 277.1L129 276.5L127.5 276L126.1 275.4L124.6 274.7L123.2 274.1L121.8 273.4L120.4 272.7L119 272L117.7 271.3L116.3 270.6L115 269.9L113.7 269.1L112.4 268.3L111.1 267.5L109.9 266.7L108.6 265.9L107.4 265.1L106.2 264.2L105 263.4L103.8 262.5L102.7 261.6L101.6 260.7L100.4 259.8L99.3 258.9L98.3 257.9L97.2 257L96.2 256.1L95.1 255.1L94.1 254.1L93.1 253.1L92.2 252.1L91.2 251.1L90.3 250.1L89.4 249.1L88.5 248.1L87.6 247.1L86.8 246.1L85.9 245L85.1 244L84.3 242.9L83.6 241.9L82.8 240.8L82.1 239.8L81.4 238.7L80.7 237.6L80 236.5L79.3 235.5L78.7 234.4L78.1 233.3L77.4 232.2L76.9 231.2L76.3 230.1L75.7 229L75.2 227.9L74.7 226.8L74.2 225.8L73.7 224.7L73.3 223.6L72.8 222.5L72.4 221.5L72 220.4L71.5999 219.3L71.1999 218.3L70.9 217.2L70.5 216.2L70.2 215.1L69.9 214.1L69.5999 213L69.2999 212L69.0999 210.9L68.7999 209.9L68.5999 208.9L68.4 207.9L68.2 206.9L68 205.8L67.7999 204.8L67.7 203.9L67.5 202.9L67.4 201.9L67.2999 200.9L67.2 200L67.0999 199L67 198.1L66.9 197.1V196.2L66.7999 195.3V194.3L66.7 193.4V192.5V191.7V190.8V189.9L66.7999 189.1V188.2V187.4L66.9 186.5L67 185.7V184.9L67.0999 184.1L67.2 183.3L67.2999 182.5L67.4 181.8L67.5 181L67.5999 180.2L67.7 179.5L67.7999 178.8L67.9 178.1L68.0999 177.4L68.2 176.7L68.2999 176L68.5 175.3L68.5999 174.6L68.7999 174L68.9 173.3L69.0999 172.7L69.2 172L69.4 171.4L69.5 170.8L69.7 170.2L69.9 169.6L70 169L70.2 168.5L70.4 167.9L70.5 167.4L70.7 166.8L70.9 166.3L71 165.8L71.1999 165.2L71.3 164.7L71.5 164.2L71.6999 163.7L71.8 163.3L72 162.8L72.1 162.3L72.3 161.9L72.4 161.4L72.6 161L72.7 160.5L72.9 160.1L73 159.7L73.2 159.2L73.3 158.8L73.4 158.4L73.5 158L73.7 157.6L73.8 157.3L73.9 156.9L74 156.5L74.1 156.1L74.2 155.7L74.3 155.4L74.4 155V154.7L74.5 154.3L74.6 154L74.7 153.6V153.3L74.8 152.9V152.6L74.9 152.3V151.9V151.6L75 151.3V150.9V150.6V150.3V149.9V149.6V149.3V148.9L74.9 148.6V148.3V147.9L74.8 147.6V147.3V146.9L74.7 146.6L74.6 146.2V145.9L74.5 145.5L74.4 145.2L74.3 144.8L74.2 144.5L74.1 144.1L74 143.7L73.9 143.4L73.8 143L73.7 142.6L73.6 142.2L73.5 141.8L73.4 141.4L73.2 141L73.1 140.6L73 140.2L72.8 139.7L72.7 139.3L72.5 138.9L72.4 138.4L72.2 138L72.1 137.5L71.9 137L71.8 136.5L71.5999 136.1L71.4 135.6L71.3 135.1L71.0999 134.6L70.9 134L70.7999 133.5L70.5999 133L70.5 132.4L70.2999 131.9L70.0999 131.3L70 130.7L69.7999 130.1L69.5999 129.5L69.5 128.9L69.2999 128.3L69.2 127.7L69 127.1L68.7999 126.4L68.7 125.8L68.5 125.1L68.4 124.4L68.2999 123.8L68.0999 123.1L68 122.4L67.9 121.6L67.7999 120.9L67.5999 120.2L67.5 119.4L67.4 118.7L67.2999 117.9L67.2 117.2L67.0999 116.4V115.6L67 114.8L66.9 114V113.1L66.7999 112.3V111.4V110.6L66.7 109.7V108.9V108V107.1L66.7999 106.2V105.3V104.4L66.9 103.4V102.5L67 101.6L67.0999 100.6L67.2 99.7L67.2999 98.7L67.4 97.7L67.5999 96.7L67.7 95.7L67.9 94.7L68.0999 93.7L68.2999 92.7L68.5 91.7L68.7 90.7L68.9 89.7L69.2 88.6L69.5 87.6L69.7 86.6L70 85.5L70.2999 84.5L70.7 83.4L71 82.4L71.4 81.3L71.8 80.2L72.2 79.2L72.6 78.1L73 77L73.5 75.9L73.9 74.9L74.4 73.8L74.9 72.7L75.4 71.6L76 70.6L76.5 69.5L77.1 68.4L77.7 67.3L78.3 66.2L78.9 65.2L79.6 64.1L80.3 63L80.9 61.9L81.6 60.9L82.4 59.8L83.1 58.8L83.9 57.7L84.7 56.6L85.5 55.6L86.3 54.6L87.1 53.5L88 52.5L88.9 51.5L89.8 50.5L90.7 49.4L91.6 48.4L92.6 47.4L93.5 46.5L94.5 45.5L95.6 44.5L96.6 43.6L97.6 42.6L98.7 41.7L99.8 40.7L100.9 39.8L102 38.9L103.2 38L104.3 37.2L105.5 36.3L106.7 35.4L107.9 34.6L109.1 33.8L110.4 32.9L111.7 32.1L112.9 31.4L114.2 30.6L115.5 29.8L116.9 29.1L118.2 28.4L119.6 27.7L121 27L122.4 26.3L123.8 25.7L125.2 25L126.6 24.4L128.1 23.8L129.6 23.2L131 22.7L132.5 22.1L134 21.6L135.6 21.1L137.1 20.6L138.6 20.2L140.2 19.7L141.8 19.3L143.4 18.9L144.9 18.5L146.5 18.2L148.2 17.9L149.8 17.6L151.4 17.3L153 17L154.7 16.8L156.4 16.6L158 16.4L159.7 16.2L161.4 16.1L163.1 15.9H164.7L166.4 15.8L168.1 15.7H169.9H171.6L173.3 15.8H175L176.7 15.9L178.4 16L180.2 16.2L181.9 16.3L183.6 16.5L185.4 16.7L187.1 17L188.8 17.2L190.6 17.5L192.3 17.8L194 18.2L195.8 18.5L197.5 18.9L199.2 19.4L200.9 19.8L202.7 20.3L204.4 20.8L206.1 21.3L207.8 21.9L209.5 22.5L211.2 23.1L212.9 23.7L214.5 24.4L216.2 25.1L217.9 25.8L219.5 26.5L221.2 27.3L222.8 28.1L224.4 28.9L226.1 29.7L227.7 30.6L229.3 31.5L230.8 32.4L232.4 33.3L234 34.3L235.5 35.3L237.1 36.3L238.6 37.3L240.1 38.4L241.6 39.5L243.1 40.6L244.5 41.7L246 42.8L247.4 44L248.8 45.2L250.2 46.4L251.6 47.7L253 48.9L254.3 50.2L255.6 51.5L256.9 52.8L258.2 54.2L259.5 55.6L260.7 56.9L262 58.3L263.2 59.8L264.4 61.2L265.5 62.7L266.7 64.1L267.8 65.6L268.9 67.1L270 68.7L271 70.2L272.1 71.8L273.1 73.3L274.1 74.9L275 76.5L275.9 78.2L276.9 79.8L277.8 81.4L278.6 83.1L279.5 84.8L280.3 86.4L281.1 88.1L281.8 89.8L282.6 91.6L283.3 93.3L284 95L284.6 96.8L285.2 98.5L285.8 100.3L286.4 102.1L287 103.8L287.5 105.6L288 107.4L288.5 109.2L288.9 111L289.3 112.8L289.7 114.6L290.1 116.5L290.4 118.3L290.7 120.1L291 121.9L291.3 123.8L291.5 125.6L291.7 127.4L291.8 129.3L292 131.1L292.1 132.9L292.2 134.8L292.3 136.6V138.4V140.3V142.1L292.2 143.9L292.1 145.8L292 147.6L291.9 149.4L291.7 151.2L291.6 153L291.4 154.8L291.1 156.6L290.9 158.4L290.6 160.1L290.3 161.9L289.9 163.7L289.5 165.4L289.2 167.2L288.7 168.9L288.3 170.6L287.8 172.4L287.3 174.1L286.8 175.8L286.3 177.5L285.7 179.1L285.1 180.8L284.5 182.4L283.9 184.1L283.2 185.7L282.6 187.3L281.9 188.9L281.1 190.5L280.4 192.1L279.6 193.6L278.9 195.1L278 196.7L277.2 198.2L276.4 199.7L275.5 201.1L274.6 202.6L273.7 204L272.8 205.5L271.9 206.9L270.9 208.2L269.9 209.6L268.9 211L267.9 212.3L266.9 213.6L265.9 214.9L264.8 216.2L263.7 217.4L262.6 218.7L261.5 219.9L260.4 221.1L259.3 222.3L258.1 223.4L257 224.5L255.8 225.7L254.6 226.7L253.4 227.8L252.2 228.9L251 229.9L249.8 230.9L248.6 231.9L247.3 232.8L246.1 233.8L244.8 234.7L243.5 235.6L242.3 236.5L241 237.3L239.7 238.2L238.4 239L237.1 239.8L235.8 240.5L234.5 241.3L233.1 242L231.8 242.7L230.5 243.4L229.2 244L227.8 244.7L226.5 245.3L225.1 245.9L223.8 246.4L222.5 247L221.1 247.5L219.8 248L218.4 248.5L217.1 249L215.7 249.4L214.4 249.8L213 250.2L211.7 250.6L210.4 250.9L209 251.3L207.7 251.6L206.3 251.9L205 252.2L203.7 252.4L202.4 252.6L201 252.9L199.7 253.1L198.4 253.2L197.1 253.4L195.8 253.5L194.5 253.6L193.3 253.7L192 253.8L190.7 253.9H189.4L188.2 254H186.9H185.7L184.5 253.9H183.2L182 253.8H180.8L179.6 253.7L178.4 253.6L177.3 253.5L176.1 253.3L174.9 253.2L173.8 253L172.6 252.9L171.5 252.7L170.4 252.5L169.3 252.3L168.2 252L167.1 251.8L166.1 251.5L165 251.3L164 251L162.9 250.7L161.9 250.4L160.9 250.1L159.9 249.8L158.9 249.5L157.9 249.1L157 248.8L156 248.4L155.1 248.1L154.2 247.7L153.3 247.3L152.4 247L151.5 246.6L150.6 246.2L149.8 245.8L148.9 245.3L148.1 244.9L147.3 244.5L146.5 244.1L145.7 243.6L144.9 243.2L144.1 242.8L143.4 242.3L142.6 241.9L141.9 241.4L141.2 241L140.5 240.5L139.8 240.1L139.1 239.6L138.5 239.1L137.8 238.7L137.2 238.2L136.6 237.7L135.9 237.3L135.3 236.8L134.7 236.3L134.2 235.9L133.6 235.4L133 234.9L132.5 234.5L132 234L131.4 233.5L130.9 233.1L130.4 232.6L129.9 232.2L129.4 231.7L129 231.2L128.5 230.8L128.1 230.4L127.6 229.9L127.2 229.5L126.8 229L126.3 228.6L125.9 228.2L125.5 227.8L125.1 227.3L124.8 226.9L124.4 226.5L124 226.1L123.6 225.7L123.3 225.3L122.9 224.9L122.6 224.6L122.3 224.2L121.9 223.8L121.6 223.4L121.3 223.1L121 222.7L120.7 222.4L120.4 222L120.1 221.7L119.8 221.4L119.5 221L119.2 220.7L118.9 220.4L118.6 220.1L118.3 219.8L118.1 219.5L117.8 219.2L117.5 219L117.2 218.7L117 218.4L116.7 218.2L116.4 217.9L116.2 217.7L115.9 217.4L115.6 217.2L115.4 217L115.1 216.7L114.8 216.5L114.5 216.3L114.3 216.1L114 215.9L113.7 215.7L113.5 215.5L113.2 215.4L112.9 215.2L112.6 215L112.3 214.9L112 214.7L111.7 214.5L111.4 214.4L111.1 214.2L110.8 214.1L110.5 214L110.2 213.8L109.9 213.7L109.6 213.6L109.3 213.5L108.9 213.3L108.6 213.2L108.2 213.1L107.9 213L107.5 212.9L107.2 212.8L106.8 212.7L106.4 212.6L106.1 212.5L105.7 212.4L105.3 212.3L104.9 212.2L104.5 212.1L104.1 212L103.6 211.9H103.2L102.8 211.8L102.3 211.7L101.9 211.6L101.4 211.5L101 211.4L100.5 211.3L100 211.2L99.5 211.1L99 211L98.5 210.9L98 210.8L97.5 210.7L97 210.5L96.4 210.4L95.9 210.3L95.3 210.2L94.8 210L94.2 209.9L93.6 209.8L93.1 209.6L92.5 209.5L91.9 209.3L91.3 209.1L90.6 209L90 208.8L89.4 208.6L88.8 208.4L88.1 208.2L87.5 208L86.8 207.8L86.1 207.6L85.5 207.3L84.8 207.1L84.1 206.8L83.4 206.6L82.7 206.3L82 206L81.3 205.7L80.6 205.4L79.9 205.1L79.2 204.8L78.4 204.5L77.7 204.1L77 203.8L76.2 203.4L75.5 203L74.7 202.6L74 202.2L73.2 201.8L72.4 201.4L71.6999 200.9L70.9 200.5L70.0999 200L69.4 199.5L68.5999 199L67.7999 198.5L67 198L66.2 197.4L65.5 196.9L64.7 196.3L63.9 195.7L63.0999 195.1L62.2999 194.5L61.5999 193.9L60.7999 193.2L60 192.6L59.2 191.9L58.5 191.2L57.7 190.5L56.9 189.8L56.2 189L55.4 188.3L54.5999 187.5L53.9 186.7L53.0999 185.9L52.4 185.1L51.5999 184.2L50.9 183.4L50.2 182.5L49.4 181.6L48.7 180.7L48 179.8L47.2999 178.9L46.5999 177.9L45.9 177L45.2 176L44.5999 175L43.9 174L43.2999 173L42.5999 171.9L42 170.8L41.4 169.8L40.7999 168.7L40.0999 167.6L39.5999 166.5L39 165.3L38.4 164.2L37.9 163L37.2999 161.8L36.7999 160.6L36.2999 159.4L35.7999 158.2L35.2999 157L34.7999 155.7L34.4 154.4L33.9 153.2L33.5 151.9L33.1 150.6L32.7 149.3L32.2999 147.9L32 146.6L31.6 145.2L31.2999 143.9L31 142.5L30.7 141.1L30.4 139.7L30.2 138.3L29.9 136.9L29.7 135.4L29.5 134L29.4 132.6L29.2 131.1L29.1 129.6L29 128.2L28.9 126.7L28.7999 125.2L28.7 123.7V122.2V120.7V119.1V117.6L28.7999 116.1L28.9 114.6L29 113L29.1 111.5L29.2999 109.9L29.4 108.4L29.6 106.8L29.7999 105.2L30.1 103.7L30.4 102.1L30.6 100.6L31 99L31.2999 97.4L31.7 95.9L32 94.3L32.4 92.7L32.9 91.2L33.2999 89.6L33.7999 88L34.2999 86.5L34.9 84.9L35.4 83.3L36 81.8L36.6 80.2L37.2 78.7L37.9 77.2L38.6 75.6L39.2999 74.1L40 72.6L40.7 71.1L41.5 69.6L42.2999 68.1L43.0999 66.6L44 65.1L44.9 63.6L45.7999 62.1L46.7 60.7L47.5999 59.2L48.5999 57.8L49.5999 56.4L50.5999 55L51.5999 53.6L52.7 52.2L53.7999 50.8L54.9 49.4L56 48.1L57.2 46.7L58.2999 45.4L59.5 44.1L60.7 42.8L62 41.6L63.2 40.3L64.5 39.1L65.7999 37.8L67.0999 36.6L68.5 35.4L69.7999 34.3L71.1999 33.1L72.6 32L74 30.8L75.5 29.8L76.9 28.7L78.4 27.6L79.9 26.6L81.4 25.6L82.9 24.6L84.5 23.6L86 22.6L87.6 21.7L89.2 20.8L90.8 19.9L92.4 19.1L94.1 18.2L95.7 17.4L97.4 16.6L99.1 15.9L100.7 15.1L102.4 14.4L104.2 13.7L105.9 13L107.6 12.4L109.4 11.8L111.1 11.2L112.9 10.6L114.7 10.1L116.5 9.6L118.3 9.1L120.1 8.6L121.9 8.2L123.7 7.8L125.5 7.4L127.3 7.1L129.2 6.7L131 6.4L132.9 6.2L134.7 5.9L136.6 5.7L138.4 5.5L140.3 5.4L142.2 5.2L144 5.1H145.9L147.8 5H149.6H151.5H153.4L155.2 5.1L157.1 5.2L159 5.3L160.8 5.5L162.7 5.6L164.6 5.8L166.4 6.1L168.3 6.3L170.1 6.6L171.9 6.9L173.8 7.3L175.6 7.6L177.4 8L179.2 8.5L181 8.9L182.8 9.4L184.6 9.9L186.4 10.4L188.2 11L190 11.6L191.7 12.2L193.4 12.8L195.2 13.5L196.9 14.1L198.6 14.8L200.3 15.6L202 16.3L203.6 17.1L205.3 17.9L206.9 18.7L208.6 19.6L210.2 20.5L211.8 21.4L213.4 22.3L214.9 23.2L216.5 24.2L218 25.2L219.5 26.2L221 27.2L222.5 28.3L224 29.3L225.4 30.4L226.8 31.5L228.2 32.7L229.6 33.8L231 35L232.3 36.2L233.7 37.4L235 38.6L236.3 39.8L237.5 41.1L238.8 42.3L240 43.6L241.2 44.9L242.4 46.2L243.5 47.6L244.7 48.9L245.8 50.3L246.9 51.6L248 53L249 54.4L250 55.8L251 57.2L252 58.7L253 60.1L253.9 61.6L254.8 63L255.7 64.5L256.5 66L257.4 67.5L258.2 69L259 70.5L259.7 72L260.5 73.5L261.2 75L261.9 76.6L262.5 78.1L263.2 79.6L263.8 81.2L264.4 82.7L264.9 84.3L265.5 85.9L266 87.4L266.5 89L266.9 90.5L267.4 92.1L267.8 93.7L268.2 95.2L268.6 96.8L268.9 98.4L269.2 99.9L269.5 101.5L269.8 103.1L270.1 104.6L270.3 106.2L270.5 107.8L270.7 109.3L270.8 110.9L271 112.4L271.1 114L271.2 115.5V117L271.3 118.6V120.1V121.6V123.1L271.2 124.6V126.1L271.1 127.6L271 129.1L270.8 130.5L270.7 132L270.5 133.4L270.3 134.9L270.1 136.3L269.9 137.7L269.7 139.2L269.4 140.6L269.1 141.9L268.8 143.3L268.5 144.7L268.2 146.1L267.8 147.4L267.4 148.7L267.1 150.1L266.7 151.4L266.2 152.7L265.8 153.9L265.4 155.2L264.9 156.5L264.4 157.7L263.9 158.9L263.4 160.2L262.9 161.4L262.3 162.5L261.8 163.7L261.2 164.9L260.7 166L260.1 167.1L259.5 168.3L258.9 169.4L258.3 170.4L257.6 171.5L257 172.5L256.3 173.6L255.7 174.6L255 175.6L254.3 176.6L253.7 177.6L253 178.5L252.3 179.5L251.5 180.4L250.8 181.3L250.1 182.2L249.4 183.1L248.7 183.9L247.9 184.8L247.2 185.6L246.4 186.4L245.7 187.2L244.9 188L244.1 188.7L243.4 189.5L242.6 190.2L241.8 190.9L241.1 191.6L240.3 192.3L239.5 193L238.7 193.6L238 194.3L237.2 194.9L236.4 195.5L235.6 196.1L234.8 196.6L234.1 197.2L233.3 197.8L232.5 198.3L231.7 198.8L230.9 199.3L230.2 199.8L229.4 200.3L228.6 200.7L227.9 201.2L227.1 201.6L226.3 202.1L225.6 202.5L224.8 202.9L224.1 203.3L223.3 203.6L222.6 204L221.9 204.3L221.1 204.7L220.4 205L219.7 205.3L219 205.6L218.3 205.9L217.6 206.2L216.9 206.5L216.2 206.7L215.5 207L214.8 207.2L214.1 207.5L213.5 207.7L212.8 207.9L212.1 208.1L211.5 208.3L210.9 208.5L210.2 208.7L209.6 208.9L209 209.1L208.4 209.2L207.8 209.4L207.2 209.6L206.6 209.7L206 209.9L205.4 210L204.9 210.1L204.3 210.3L203.8 210.4L203.2 210.5L202.7 210.6L202.2 210.7L201.7 210.8L201.2 210.9L200.7 211.1L200.2 211.2L199.7 211.3H199.2L198.7 211.4L198.3 211.5L197.8 211.6L197.4 211.7L196.9 211.8L196.5 211.9L196.1 212L195.7 212.1L195.3 212.2L194.9 212.3L194.5 212.4L194.1 212.5L193.7 212.6L193.3 212.7L193 212.8L192.6 212.9L192.2 213L191.9 213.1L191.5 213.2L191.2 213.3L190.9 213.4L190.5 213.5L190.2 213.7L189.9 213.8L189.6 213.9L189.3 214.1L189 214.2L188.7 214.3L188.4 214.5L188.1 214.6L187.8 214.8L187.5 215L187.2 215.1L186.9 215.3L186.7 215.5L186.4 215.7L186.1 215.8L185.8 216L185.6 216.2L185.3 216.4L185 216.7L184.7 216.9L184.5 217.1L184.2 217.3L183.9 217.6L183.7 217.8L183.4 218.1L183.1 218.3L182.9 218.6L182.6 218.9L182.3 219.1L182.1 219.4L181.8 219.7L181.5 220L181.2 220.3L180.9 220.6L180.6 220.9L180.4 221.2L180.1 221.6L179.8 221.9L179.5 222.2L179.1 222.6L178.8 222.9L178.5 223.3L178.2 223.7L177.9 224L177.5 224.4L177.2 224.8L176.8 225.2L176.5 225.6L176.1 226L175.8 226.4L175.4 226.8L175 227.2L174.6 227.6L174.2 228L173.8 228.4L173.4 228.9L173 229.3L172.6 229.7L172.1 230.2L171.7 230.6L171.2 231.1L170.7 231.5L170.3 232L169.8 232.4L169.3 232.9L168.8 233.4L168.2 233.8L167.7 234.3L167.2 234.7L166.6 235.2L166.1 235.7L165.5 236.1L164.9 236.6L164.3 237.1L163.7 237.5L163.1 238L162.4 238.5L161.8 238.9L161.1 239.4L160.4 239.9L159.8 240.3L159.1 240.8L158.4 241.2L157.6 241.7L156.9 242.1L156.2 242.6L155.4 243L154.6 243.5L153.8 243.9L153 244.3L152.2 244.8L151.4 245.2L150.6 245.6L149.7 246L148.8 246.4L148 246.8L147.1 247.2L146.2 247.6L145.3 247.9L144.3 248.3L143.4 248.7L142.4 249L141.5 249.3L140.5 249.7L139.5 250L138.5 250.3L137.5 250.6L136.4 250.9L135.4 251.2L134.4 251.4L133.3 251.7L132.2 251.9L131.1 252.2L130 252.4L128.9 252.6L127.8 252.8L126.7 253L125.5 253.1L124.4 253.3L123.2 253.4L122 253.5L120.8 253.7H119.7L118.5 253.8L117.2 253.9H116L114.8 254H113.6H112.3L111.1 253.9H109.8L108.5 253.8H107.2L106 253.7L104.7 253.6L103.4 253.4L102.1 253.3L100.8 253.1L99.5 252.9L98.1 252.7L96.8 252.5L95.5 252.3L94.2 252L92.8 251.7L91.5 251.4L90.2 251.1L88.8 250.7L87.5 250.4L86.1 250L84.8 249.6L83.4 249.1L82.1 248.7L80.8 248.2L79.4 247.7L78.1 247.2L76.7 246.7L75.4 246.1L74 245.5L72.7 244.9L71.4 244.3L70 243.6L68.7 243L67.4 242.3L66 241.6L64.7 240.8L63.4 240.1L62.0999 239.3L60.7999 238.5L59.5 237.7L58.2 236.8L56.9 236L55.7 235.1L54.4 234.2L53.2 233.2L51.9 232.3L50.7 231.3L49.4 230.3L48.2 229.3L47 228.2L45.7999 227.2L44.5999 226.1L43.5 225L42.2999 223.8L41.2 222.7L40 221.5L38.9 220.3L37.7999 219.1L36.7 217.9L35.6 216.7L34.6 215.4L33.5 214.1L32.5 212.8L31.5 211.5L30.5 210.1L29.5 208.8L28.5 207.4L27.6 206L26.6 204.6L25.7 203.2L24.7999 201.7L24 200.2L23.1 198.8L22.3 197.3L21.5 195.7L20.7 194.2L19.9 192.7L19.1 191.1L18.4 189.5L17.7 187.9L17 186.3L16.4 184.7L15.7 183.1L15.1 181.4L14.5 179.8L13.9 178.1L13.4 176.4L12.9 174.7L12.4 173L11.9 171.3L11.4 169.6L11 167.9L10.6 166.1L10.2 164.4L9.89995 162.6L9.59995 160.8L9.29995 159.1L8.99995 157.3L8.69995 155.5L8.49995 153.7L8.29995 151.9L8.19995 150.1L7.99995 148.3L7.89995 146.5L7.79995 144.6V142.8L7.69995 141V139.2V137.3L7.79995 135.5L7.89995 133.7L7.99995 131.8L8.09995 130L8.29995 128.2L8.39995 126.3L8.69995 124.5L8.89995 122.7L9.19995 120.8L9.49995 119L9.79995 117.2L10.1 115.4L10.5 113.5L10.9 111.7L11.4 109.9L11.8 108.1L12.3 106.3L12.8 104.5L13.4 102.8L13.9 101L14.5 99.2L15.1 97.5L15.8 95.7L16.5 94L17.2 92.2L17.9 90.5L18.6 88.8L19.4 87.1L20.2 85.4L21.1 83.7L21.9 82.1L22.8 80.4L23.7 78.8L24.6 77.2L25.6 75.6L26.5 74L27.5 72.4L28.6 70.8L29.6 69.3L30.7 67.7L31.7999 66.2L32.9 64.7L34 63.2L35.2 61.8L36.4 60.3L37.6 58.9L38.7999 57.5L40 56.1L41.2999 54.7L42.5999 53.4L43.9 52L45.2 50.7L46.5 49.4L47.9 48.2L49.2 46.9L50.5999 45.7L52 44.5L53.5 43.3L54.9 42.1L56.4 41L57.7999 39.9L59.2999 38.8L60.7999 37.7L62.2999 36.7L63.9 35.7L65.4 34.7L67 33.7L68.5 32.7L70.0999 31.8L71.6999 30.9L73.3 30L74.9 29.2L76.6 28.4L78.2 27.6L79.8 26.8L81.5 26L83.1 25.3L84.8 24.6L86.5 24L88.2 23.3L89.9 22.7L91.6 22.1L93.3 21.5L95 21L96.7 20.5L98.4 20L100.1 19.5L101.8 19.1L103.6 18.7L105.3 18.3L107 18L108.8 17.6L110.5 17.3L112.2 17.1L114 16.8L115.7 16.6L117.4 16.4L119.1 16.2L120.9 16.1L122.6 15.9H124.3L126.1 15.8L127.8 15.7H129.5H131.2L132.9 15.8H134.6L136.3 15.9L138 16L139.7 16.1L141.3 16.3L143 16.5L144.7 16.7L146.3 16.9L148 17.2L149.6 17.4L151.2 17.7L152.8 18.1L154.4 18.4L156 18.8L157.6 19.1L159.2 19.6L160.8 20L162.3 20.4L163.8 20.9L165.4 21.4L166.9 21.9L168.4 22.4L169.9 23L171.3 23.6L172.8 24.2L174.2 24.8L175.7 25.4L177.1 26.1L178.5 26.7L179.9 27.4L181.2 28.1L182.6 28.8L183.9 29.5L185.3 30.3L186.6 31.1L187.9 31.8L189.1 32.6L190.4 33.4L191.6 34.3L192.8 35.1L194 35.9L195.2 36.8L196.4 37.7L197.5 38.6L198.7 39.5L199.8 40.4L200.9 41.3L202 42.2L203 43.2L204.1 44.1L205.1 45.1L206.1 46.1L207.1 47.1L208 48.1L209 49.1L209.9 50.1L210.8 51.1L211.7 52.1L212.5 53.1L213.4 54.2L214.2 55.2L215 56.2L215.8 57.3L216.6 58.3L217.3 59.4L218.1 60.5L218.8 61.5L219.5 62.6L220.2 63.7L220.8 64.7L221.5 65.8L222.1 66.9L222.7 68L223.3 69.1L223.8 70.1L224.4 71.2L224.9 72.3L225.4 73.4L225.9 74.4L226.4 75.5L226.8 76.6L227.3 77.7L227.7 78.7L228.1 79.8L228.5 80.9L228.8 81.9L229.2 83L229.5 84.1L229.8 85.1L230.2 86.2L230.4 87.2L230.7 88.2L231 89.3L231.2 90.3L231.4 91.3L231.7 92.3L231.9 93.4L232 94.4L232.2 95.4L232.4 96.3L232.5 97.3L232.6 98.3L232.8 99.3L232.9 100.2L233 101.2V102.1L233.1 103.1L233.2 104V104.9V105.8L233.3 106.7V107.6V108.5V109.4L233.2 110.3V111.1V112L233.1 112.8V113.6L233 114.5V115.3L232.9 116.1L232.8 116.8L232.7 117.6L232.6 118.4L232.5 119.2L232.4 119.9L232.3 120.6L232.2 121.4L232 122.1L231.9 122.8L231.8 123.5L231.6 124.2L231.5 124.9L231.4 125.5L231.2 126.2L231.1 126.8L230.9 127.5L230.8 128.1L230.6 128.7L230.4 129.3L230.3 129.9L230.1 130.5L229.9 131.1L229.8 131.6L229.6 132.2L229.4 132.8L229.3 133.3L229.1 133.8L228.9 134.4L228.8 134.9L228.6 135.4L228.5 135.9L228.3 136.4L228.1 136.8L228 137.3L227.8 137.8L227.7 138.2L227.5 138.7L227.4 139.1L227.2 139.6L227.1 140L227 140.4L226.8 140.8L226.7 141.2L226.6 141.6L226.4 142L226.3 142.4L226.2 142.8L226.1 143.2L226 143.6L225.9 144L225.8 144.3L225.7 144.7L225.6 145L225.5 145.4V145.8L225.4 146.1L225.3 146.5V146.8L225.2 147.1V147.5L225.1 147.8V148.1V148.5L225 148.8V149.1V149.5V149.8" stroke="#7B61C1" stroke-width="9"/>
</svg>
