<svg width="128" height="128" viewBox="0 0 128 128" fill="none" xmlns="http://www.w3.org/2000/svg">
<path d="M113.983 68.9655C106.236 78.033 97.8688 88.396 81.1352 88.396C66.1874 88.396 60.6186 76.1491 60.2272 66.2003C63.5021 72.633 69.9052 77.8422 79.8953 77.6012C99.1088 77.0255 112.279 60.9055 112.279 46.2249C112.279 28.6657 98.1792 16 73.6974 16C56.1884 16 34.4959 22.1889 20.2408 31.976C20.0858 42.051 26.1288 55.1484 28.298 53.7091C40.6562 45.4555 50.4558 40.1424 59.9607 37.4783C45.8908 52.0524 12.1332 85.8928 8 91.8504C8.46488 97.3192 15.7474 112 19.3111 112C20.3958 112 21.3254 111.424 22.4101 110.417C32.5872 99.7952 40.8835 90.272 48.2629 81.0928C49.299 94.5456 56.4209 110.993 76.3315 110.993C94.1504 110.993 111.814 99.0464 119.871 72.1319C120.802 68.8216 116.462 66.2309 113.983 68.9655ZM93.6856 47.2324C93.6856 55.7242 84.6984 59.8981 76.4865 59.8981C72.0968 59.8981 68.7247 58.8274 66.058 57.4361C70.9648 50.5344 75.822 43.4574 81.0408 35.8814C90.2424 37.328 93.6856 42.079 93.6856 47.2324Z" fill="#FF4438"/>
</svg>
