<?xml version="1.0" encoding="UTF-8"?>
<svg version="1.1" xmlns="http://www.w3.org/2000/svg" width="400" height="400">
<path d="M0 0 C0.79792969 0.61359375 1.59585938 1.2271875 2.41796875 1.859375 C15.6668393 12.83366069 25.6835412 28.35693747 30 45 C31.2375 45.061875 32.475 45.12375 33.75 45.1875 C48.03158184 46.82416479 61.04849375 56.11303294 70 67 C80.30169801 82.13233438 84.81033477 98.2743424 81.7890625 116.54296875 C78.71638463 130.00494851 70.93087783 143.31641613 59.30664062 151.13964844 C45.06597222 160 45.06597222 160 39 160 C37.69418564 146.79676588 37.69418564 146.79676588 39 141 C41.4687222 138.14873707 43.63980788 137.04373865 47.03515625 135.453125 C54.14197044 131.96994334 58.40478739 125.19180144 61.30859375 118.04296875 C64.52593556 108.53635989 64.17213898 97.71685899 60.2578125 88.4921875 C54.59982768 77.28164614 46.81174526 69.57750006 35 65 C28.47945712 63.14134058 21.73864326 62.54482648 15 62 C14.8040625 61.1028125 14.608125 60.205625 14.40625 59.28125 C9.52855658 38.9294947 -0.64315895 21.08041689 -18.86303711 9.8503418 C-36.64802324 -0.62547586 -57.78826099 -4.41597045 -78 0.5625 C-89.72231999 4.24591918 -99.85158288 9.77466641 -109 18 C-109.62261719 18.52980469 -110.24523437 19.05960938 -110.88671875 19.60546875 C-117.45656692 25.58476877 -122.39254476 33.91281642 -125.625 42.125 C-129.12162411 46.3577555 -132.99705917 46.36463577 -138.265625 47.27734375 C-151.25115391 49.79023376 -161.70272057 56.95478285 -169.46875 67.578125 C-177.22837712 79.85100463 -180.20587462 93.18525255 -177.27734375 107.54296875 C-173.96844051 118.97007183 -168.66154085 127.78340132 -160 136 C-158.63294922 136.55494141 -158.63294922 136.55494141 -157.23828125 137.12109375 C-155 139 -155 139 -154.60498047 141.19824219 C-154.5062661 144.04390341 -154.56545174 146.8428367 -154.6875 149.6875 C-154.71005859 150.67556641 -154.73261719 151.66363281 -154.75585938 152.68164062 C-154.81482012 155.12261559 -154.89704952 157.56054868 -155 160 C-170.50994553 155.28352533 -182.40434005 143.00398975 -190 129 C-197.29496444 112.81294873 -200.61067953 93.2270224 -195.15625 75.87890625 C-190.23742114 63.63168709 -184.52378142 54.18515809 -175 45 C-174.36707031 44.33613281 -173.73414063 43.67226562 -173.08203125 42.98828125 C-165.11302043 35.16000351 -151.21285052 28 -140 28 C-139.61714844 26.92492187 -139.61714844 26.92492187 -139.2265625 25.828125 C-130.96355781 6.77584666 -111.76711467 -7.15405663 -93.04589844 -14.79785156 C-61.230681 -26.82961541 -26.66003688 -20.63537361 0 0 Z " fill="#3347C5" transform="translate(258,130)"/>
<path d="M0 0 C2.97042858 1.69257563 5.25911568 3.97064733 7.64282227 6.38305664 C8.16986755 6.90723175 8.69691284 7.43140686 9.2399292 7.97146606 C10.34959858 9.07909751 11.45550257 10.19051243 12.55786133 11.30541992 C14.24964572 13.01329333 15.95686504 14.7045487 17.66625977 16.39477539 C18.74274411 17.47324159 19.81829779 18.55263773 20.89282227 19.63305664 C21.40524475 20.13940643 21.91766724 20.64575623 22.44561768 21.16744995 C26.00219727 24.79595778 26.00219727 24.79595778 26.00219727 28.14086914 C23.36219727 28.14086914 20.72219727 28.14086914 18.00219727 28.14086914 C18.0635824 35.71284405 18.14081282 43.28451945 18.23791218 50.8561182 C18.28251633 54.37247967 18.32179365 57.88872794 18.34863281 61.40527344 C18.3797737 65.45415014 18.43455826 69.50241453 18.49047852 73.55102539 C18.49686844 74.80544937 18.50325836 76.05987335 18.50984192 77.35231018 C18.64896902 85.65105953 19.60376917 91.34295085 24.68969727 98.07836914 C25.45282227 99.08899414 26.21594727 100.09961914 27.00219727 101.14086914 C25.08315136 103.05991505 21.54715134 102.32799538 18.93188477 102.34399414 C18.21743195 102.34969421 17.50297913 102.35539429 16.76687622 102.36126709 C15.24865201 102.37073519 13.73040707 102.37725823 12.2121582 102.38110352 C9.90741977 102.39074274 7.6035986 102.42171899 5.29907227 102.45336914 C3.82251505 102.45990586 2.34595146 102.4651537 0.86938477 102.46899414 C0.1868161 102.48134094 -0.49575256 102.49368774 -1.19900513 102.50640869 C-6.25188842 102.4833252 -9.58861814 101.4310535 -13.99780273 99.14086914 C-18.17734563 94.63136233 -19.12321582 92.10154199 -19.11132812 86.03881836 C-19.11125259 84.7576413 -19.11117706 83.47646423 -19.11109924 82.15646362 C-19.10599221 80.75282757 -19.10077621 79.34919191 -19.09545898 77.94555664 C-19.09359419 76.51351979 -19.09217058 75.0814823 -19.09117126 73.64944458 C-19.08735092 69.8781356 -19.07752475 66.10686507 -19.06646729 62.33557129 C-19.05624279 58.48812378 -19.05167142 54.64067007 -19.04663086 50.79321289 C-19.03590206 43.24241411 -19.01883142 35.69164701 -18.99780273 28.14086914 C-21.63780273 28.14086914 -24.27780273 28.14086914 -26.99780273 28.14086914 C-26.53828244 23.80981006 -23.72082003 21.39629986 -20.79077148 18.46508789 C-20.26896805 17.93567093 -19.74716461 17.40625397 -19.20954895 16.86079407 C-18.10630662 15.7467652 -16.99908239 14.6366675 -15.88818359 13.53027344 C-14.1876438 11.83070887 -12.50955929 10.11092417 -10.83178711 8.38891602 C-9.75691793 7.30884199 -8.68078759 6.23002127 -7.60327148 5.15258789 C-7.10208298 4.63500412 -6.60089447 4.11742035 -6.08451843 3.58415222 C-2.617271 0.18454911 -2.617271 0.18454911 0 0 Z " fill="#3347C5" transform="translate(142.997802734375,191.859130859375)"/>
<path d="M0 0 C6.14624045 5.09235835 11.7936747 10.61023792 17.4375 16.25 C18.35982422 17.16007812 19.28214844 18.07015625 20.23242188 19.0078125 C21.10318359 19.87664062 21.97394531 20.74546875 22.87109375 21.640625 C23.66443115 22.42985352 24.45776855 23.21908203 25.27514648 24.03222656 C27 26 27 26 27 28 C24.69 28.33 22.38 28.66 20 29 C19.8981271 35.26206481 19.82833719 41.52391392 19.78027344 47.78662109 C19.76022532 49.91463202 19.73297946 52.04258832 19.69824219 54.17041016 C19.64942452 57.23874433 19.62696274 60.30634673 19.609375 63.375 C19.58872986 64.31802979 19.56808472 65.26105957 19.54681396 66.23266602 C19.54391806 74.86244791 22.33981382 80.53121579 28 87 C26.08095409 88.91904591 22.54495407 88.18712624 19.9296875 88.203125 C19.21523468 88.20882507 18.50078186 88.21452515 17.76467896 88.22039795 C16.24645474 88.22986605 14.72820981 88.23638908 13.20996094 88.24023438 C10.9052225 88.2498736 8.60140133 88.28084985 6.296875 88.3125 C4.82031778 88.31903672 3.34375419 88.32428456 1.8671875 88.328125 C1.18461884 88.3404718 0.50205017 88.3528186 -0.20120239 88.36553955 C-5.25408568 88.34245606 -8.5908154 87.29018436 -13 85 C-16.64938091 81.06251007 -18.11019552 78.57482085 -18.20532227 73.27490234 C-18.22526749 72.29403656 -18.24521271 71.31317078 -18.26576233 70.30258179 C-18.28247482 69.24108917 -18.29918732 68.17959656 -18.31640625 67.0859375 C-18.3475779 65.45877304 -18.3475779 65.45877304 -18.37937927 63.79873657 C-18.44490634 60.32422379 -18.50377447 56.84963376 -18.5625 53.375 C-18.60568221 51.02342942 -18.6492964 48.67186674 -18.69335938 46.3203125 C-18.80059093 40.5469573 -18.90235144 34.7735248 -19 29 C-21.31 28.67 -23.62 28.34 -26 28 C-24.39626852 23.99482604 -21.57886014 21.3228902 -18.5546875 18.359375 C-17.75987473 17.56880707 -17.75987473 17.56880707 -16.94900513 16.76226807 C-15.26232175 15.08674325 -13.56880436 13.41832278 -11.875 11.75 C-10.72740612 10.61244149 -9.58026539 9.47442564 -8.43359375 8.3359375 C-5.62761863 5.55196535 -2.81549536 2.7743424 0 0 Z " fill="#3347C5" transform="translate(199,206)"/>
<path d="M0 0 C3.97990588 1.60422999 6.67192316 4.38246697 9.640625 7.375 C10.43119293 8.16269775 10.43119293 8.16269775 11.23773193 8.96630859 C12.34616928 10.07338883 13.45210046 11.1829833 14.55566406 12.29492188 C16.25106301 14.00106975 17.9569161 15.69624047 19.6640625 17.390625 C20.74022558 18.46810892 21.81576851 19.54621267 22.890625 20.625 C23.40304749 21.13337402 23.91546997 21.64174805 24.44342041 22.16552734 C28 25.77005909 28 25.77005909 28 28 C25.36 28 22.72 28 20 28 C20.04447015 32.26913456 20.1146265 36.53688449 20.20751953 40.80517578 C20.23556036 42.25395216 20.25685811 43.70287672 20.27099609 45.15185547 C20.35315473 56.64710127 20.35315473 56.64710127 25 67 C25.80872559 67.74830078 25.80872559 67.74830078 26.63378906 68.51171875 C28 70 28 70 28 73 C23.42850243 73.07457894 18.85736491 73.12880276 14.28540039 73.16479492 C12.7326032 73.17981105 11.17984791 73.20023028 9.62719727 73.22631836 C7.38547376 73.26302073 5.14431461 73.27979787 2.90234375 73.29296875 C2.21663803 73.30845261 1.53093231 73.32393646 0.82444763 73.33988953 C-5.68484286 73.34212379 -10.11152329 71.74426344 -14.89331055 67.32763672 C-17.39361723 63.37825903 -17.73132173 60.29524952 -17.70703125 55.7578125 C-17.72971321 54.60525467 -17.72971321 54.60525467 -17.75285339 53.42941284 C-17.79556994 50.99430631 -17.80455205 48.5604431 -17.8125 46.125 C-17.83565705 44.46611315 -17.86102491 42.8072556 -17.88867188 41.1484375 C-17.95136468 37.09884922 -17.98382525 33.0500304 -18 29 C-20.64 28.67 -23.28 28.34 -26 28 C-24.39626852 23.99482604 -21.57886014 21.3228902 -18.5546875 18.359375 C-17.75987473 17.56880707 -17.75987473 17.56880707 -16.94900513 16.76226807 C-15.26232175 15.08674325 -13.56880436 13.41832278 -11.875 11.75 C-10.72740612 10.61244149 -9.58026539 9.47442564 -8.43359375 8.3359375 C-5.62761863 5.55196535 -2.81549536 2.7743424 0 0 Z " fill="#3347C5" transform="translate(255,221)"/>
</svg>
