<svg width="55" height="62" viewBox="0 0 55 62" fill="none" xmlns="http://www.w3.org/2000/svg">
<g clip-path="url(#clip0_327_4)">
<path d="M54.7679 0C51.521 14.0009 47.9451 27.8977 44.2137 41.7795C43.6846 43.7559 43.1556 45.7323 42.627 47.7087C41.3521 52.4732 40.0739 57.2368 38.7939 62C34.6521 62 30.5103 62 26.243 62C26.98 54.3033 28.8181 47.1131 30.8783 39.6659C31.5135 37.3581 32.1451 35.0493 32.7725 32.7393C33.0521 31.7282 33.3316 30.7171 33.6196 29.6754C34.3579 26.9535 34.3579 26.9535 34.23 23.6727C33.3504 24.2424 32.4709 24.812 31.5647 25.3989C30.4204 26.1312 29.2761 26.8636 28.0971 27.6182C26.9587 28.3506 25.8203 29.0829 24.6473 29.8375C21.679 31.5636 21.679 31.5636 19.397 31.5636C19.7266 26.3729 20.5282 21.3532 24.4596 17.5971C28.6406 14.4153 33.163 11.7787 37.7259 9.1712C40.9417 7.3074 44.0254 5.26896 47.1375 3.24091C52.1941 0 52.1941 0 54.7679 0Z" fill="#3295FF"/>
<path d="M33.089 25.9272C32.388 33.964 30.2386 41.3315 27.8832 49.0363C27.5074 50.286 27.1316 51.5357 26.7444 52.8233C25.823 55.8841 24.8929 58.9423 23.961 62C16.0539 62 8.14673 62 0 62C2.15533 44.9648 2.15533 44.9648 7.26551 40.4491C10.6842 38.0589 14.1691 35.8821 17.7568 33.7477C18.9739 32.987 20.191 32.2263 21.445 31.4425C30.3757 25.9272 30.3757 25.9272 33.089 25.9272Z" fill="#062554"/>
</g>
<defs>
<clipPath id="clip0_327_4">
<rect width="55" height="62" fill="white"/>
</clipPath>
</defs>
</svg>
