<?xml version="1.0" encoding="UTF-8"?>
<svg version="1.1" xmlns="http://www.w3.org/2000/svg" width="316" height="67">
<path d="M0 0 C4.39548491 -0.14536813 8.79035087 -0.23409948 13.1875 -0.3125 C14.43337891 -0.35439453 15.67925781 -0.39628906 16.96289062 -0.43945312 C27.27029315 -0.57762206 27.27029315 -0.57762206 30.33203125 2.3046875 C32.53356871 5.86220705 32.57880324 7.87602691 32 12 C30.07141297 17.5588685 26.52108028 20.50700099 22 24 C22.66 24.99 23.32 25.98 24 27 C24.99080825 32.05312207 25.08986071 36.87793956 25 42 C21.7 42 18.4 42 15 42 C14.66259915 40.08404518 14.33023588 38.16720278 14 36.25 C13.814375 35.18265625 13.62875 34.1153125 13.4375 33.015625 C13 30 13 30 13 26 C10.03 25.67 7.06 25.34 4 25 C3.72285156 26.14339844 3.44570313 27.28679688 3.16015625 28.46484375 C2.79445622 29.95577465 2.42856071 31.44665761 2.0625 32.9375 C1.88009766 33.69224609 1.69769531 34.44699219 1.50976562 35.22460938 C0.11328125 40.88671875 0.11328125 40.88671875 -1 42 C-4.00003445 42.14177857 -6.99757235 42.04228771 -10 42 C-9.43736236 33.00802758 -6.86146303 24.5647431 -4.4375 15.9375 C-4.00783186 14.388847 -3.57878998 12.84002009 -3.15039062 11.29101562 C-2.10747498 7.52529862 -1.05609525 3.76204103 0 0 Z M8 7 C7.34 10.3 6.68 13.6 6 17 C7.91541138 17.10841951 9.83259773 17.18578079 11.75 17.25 C13.35101563 17.31960937 13.35101563 17.31960937 14.984375 17.390625 C18.09876279 17.24334263 18.09876279 17.24334263 20.40625 15.15625 C22.31401181 13.07495 22.31401181 13.07495 21.75 10.25 C21.5025 9.5075 21.255 8.765 21 8 C17.98509443 6.99503148 15.95818308 6.89664697 12.8125 6.9375 C10.4303125 6.9684375 10.4303125 6.9684375 8 7 Z " fill="#062553" transform="translate(53,13)"/>
<path d="M0 0 C2.97 0 5.94 0 9 0 C9.33 0.66 9.66 1.32 10 2 C10.99 1.34 11.98 0.68 13 0 C17.85476051 -0.70764306 21.80188749 -0.709087 26.0625 1.8125 C28.49048188 4.55376987 28.94320867 6.44344493 29.3125 10.0625 C28.76203483 16.99836119 26.71944312 22.92097947 21.375 27.5625 C17.81645465 30.30522164 15.58588657 31.15428864 11.0625 31.1875 C10.18722656 31.20167969 9.31195313 31.21585938 8.41015625 31.23046875 C6 31 6 31 3 29 C1.68 33.62 0.36 38.24 -1 43 C-4.3 43 -7.6 43 -11 43 C-9.6286708 34.67868826 -7.68979893 26.59311659 -5.48608398 18.46264648 C-4.9302375 16.41068983 -4.38164547 14.35688926 -3.83398438 12.30273438 C-1.14808914 2.29617828 -1.14808914 2.29617828 0 0 Z M10.375 7.9375 C7.24395445 10.65656587 6.22264587 13.06036332 5 17 C4.80511261 19.78705637 4.80511261 19.78705637 6 22 C8.19418437 23.67778312 8.19418437 23.67778312 11 24 C14.84634197 22.62630644 15.88296913 21.21065557 17.875 17.625 C19.26931698 13.22069156 19.26931698 13.22069156 18 9 C15.01973534 7.01315689 13.76786722 6.72576171 10.375 7.9375 Z " fill="#062553" transform="translate(213,24)"/>
<path d="M0 0 C1.29550781 -0.02126953 1.29550781 -0.02126953 2.6171875 -0.04296875 C5.2491288 0.19890748 6.86480544 0.85766459 9.125 2.1875 C9.125 1.5275 9.125 0.8675 9.125 0.1875 C12.425 0.1875 15.725 0.1875 19.125 0.1875 C16.75064486 10.61950716 14.18098707 20.93043703 11.125 31.1875 C6.45833333 31.1875 1.79166667 31.1875 -2.875 31.1875 C-3.679375 31.23390625 -4.48375 31.2803125 -5.3125 31.328125 C-12.2765748 31.6253721 -12.2765748 31.6253721 -15.4375 29.3125 C-18.15097688 25.30127331 -18.42791625 21.94257974 -17.875 17.1875 C-16.03992353 10.00195961 -13.05515666 5.31267846 -6.875 1.1875 C-4.42528376 -0.03735812 -2.73265539 0.02027192 0 0 Z M-4.875 10.1875 C-7.37429317 13.85312999 -7.92238194 15.5999639 -7.5625 20.0625 C-7.335625 21.09375 -7.10875 22.125 -6.875 23.1875 C-3.84729055 24.13906583 -2.2728816 24.32960057 0.75 23.25 C4.0279855 20.40332838 5.33039653 17.43366228 6.125 13.1875 C5.76872339 10.2474241 5.76872339 10.2474241 4.125 8.1875 C0.46270521 6.16692357 -1.81327389 7.75382027 -4.875 10.1875 Z " fill="#062554" transform="translate(99.875,23.8125)"/>
<path d="M0 0 C0.66 0.66 1.32 1.32 2 2 C2.33 1.34 2.66 0.68 3 0 C6.3 0 9.6 0 13 0 C11.85898581 7.15727081 10.27277442 14.11943909 8.4375 21.125 C8.21553955 21.97876221 7.9935791 22.83252441 7.76489258 23.7121582 C7.55243896 24.51097412 7.33998535 25.30979004 7.12109375 26.1328125 C6.9295874 26.85355957 6.73808105 27.57430664 6.54077148 28.31689453 C6 30 6 30 5 31 C3.48071962 31.07179964 1.95832518 31.08392007 0.4375 31.0625 C-0.38878906 31.05347656 -1.21507812 31.04445313 -2.06640625 31.03515625 C-3.02353516 31.01775391 -3.02353516 31.01775391 -4 31 C-4.33 30.34 -4.66 29.68 -5 29 C-5.99 29.66 -6.98 30.32 -8 31 C-12.99620813 31.80447419 -16.81632667 31.79716775 -21.0625 28.9375 C-23.43907272 25.3343091 -24 23.32548264 -24 19 C-22.48156691 11.92632392 -19.72610086 6.07183665 -13.875 1.625 C-9.52517897 -0.63954891 -4.79019517 -0.75312026 0 0 Z M-10.62109375 10.37109375 C-13.21899682 13.44000474 -13.6197004 16.0068542 -14 20 C-12.29039594 22.54645504 -12.29039594 22.54645504 -10 24 C-6.93240625 23.181975 -4.57457135 22.51513294 -2.1875 20.375 C-0.40483014 16.80966027 -0.12716766 14.0057814 0 10 C-1.08674994 7.91015769 -1.08674994 7.91015769 -3 7 C-6.54685244 7 -7.99809496 8.06364369 -10.62109375 10.37109375 Z " fill="#062553" transform="translate(267,24)"/>
<path d="M0 0 C-2.8456678 12.42011233 -5.97967919 24.74799358 -9.25 37.0625 C-9.71375266 38.81569941 -10.17729533 40.56895438 -10.640625 42.32226562 C-11.75800913 46.54881827 -12.87818938 50.77462018 -14 55 C-17.63 55 -21.26 55 -25 55 C-24.35402274 48.17226565 -22.74304942 41.79388386 -20.9375 35.1875 C-20.38077458 33.14022826 -19.82723687 31.0920862 -19.27734375 29.04296875 C-19.03234131 28.14602295 -18.78733887 27.24907715 -18.53491211 26.32495117 C-17.88789165 23.91034577 -17.88789165 23.91034577 -18 21 C-18.77085938 21.5053125 -19.54171875 22.010625 -20.3359375 22.53125 C-21.33882812 23.1809375 -22.34171875 23.830625 -23.375 24.5 C-24.37273438 25.1496875 -25.37046875 25.799375 -26.3984375 26.46875 C-29 28 -29 28 -31 28 C-30.71111244 23.39530731 -30.00853353 18.94233313 -26.56298828 15.61035156 C-22.8986326 12.78776503 -18.93511649 10.44881315 -14.93603516 8.13574219 C-12.11762542 6.48236992 -9.41501731 4.67407764 -6.6875 2.875 C-2.25576037 0 -2.25576037 0 0 0 Z " fill="#3295FF" transform="translate(48,0)"/>
<path d="M0 0 C1.64574566 -0.02688151 3.29161413 -0.04634123 4.9375 -0.0625 C5.85402344 -0.07410156 6.77054687 -0.08570312 7.71484375 -0.09765625 C10 0 10 0 11 1 C11.39943176 3.52195967 11.75079848 6.02963656 12.0625 8.5625 C12.15337891 9.27341797 12.24425781 9.98433594 12.33789062 10.71679688 C12.56239503 12.47738403 12.78168397 14.23863478 13 16 C13.47457642 15.27296875 13.47457642 15.27296875 13.95874023 14.53125 C15.42053538 12.33155103 16.9276026 10.16693155 18.4375 8 C18.93443359 7.236875 19.43136719 6.47375 19.94335938 5.6875 C23.80511889 0.24703377 23.80511889 0.24703377 27.41845703 -0.5 C29.66966884 -0.5 31.77963264 -0.35930091 34 0 C33.39830855 3.00763244 32.49073223 5.03129344 30.69921875 7.51171875 C29.98378906 8.51283691 29.98378906 8.51283691 29.25390625 9.53417969 C28.73699219 10.24477539 28.22007812 10.95537109 27.6875 11.6875 C26.5974216 13.20686292 25.50758509 14.72639943 24.41796875 16.24609375 C23.85513184 17.02710449 23.29229492 17.80811523 22.71240234 18.61279297 C21.01932749 20.97305615 19.34420542 23.34491686 17.67578125 25.72265625 C17.14315674 26.48167236 16.61053223 27.24068848 16.06176758 28.02270508 C15.04413687 29.47398614 14.02702125 30.92562855 13.01049805 32.37768555 C12.09422014 33.67954861 11.17152965 34.97693207 10.24121094 36.26879883 C9.13123096 37.81696327 8.0553822 39.38946688 6.984375 40.96484375 C5 43 5 43 2.421875 43.48828125 C1.09929687 43.40126953 1.09929687 43.40126953 -0.25 43.3125 C-1.14203125 43.26738281 -2.0340625 43.22226563 -2.953125 43.17578125 C-3.96632813 43.08876953 -3.96632813 43.08876953 -5 43 C-3.68609875 39.14483062 -2.10015076 36.91689456 0.72265625 34.0234375 C3.03241784 31.13339098 3.96171125 29.6116604 4.19482422 25.88769531 C3.79314082 22.40508502 3.17984674 19.0509206 2.4375 15.625 C1.99816254 13.30478881 1.55933579 10.98448084 1.12109375 8.6640625 C0.9089624 7.64779785 0.69683105 6.6315332 0.47827148 5.58447266 C0 3 0 3 0 0 Z " fill="#062553" transform="translate(282,24)"/>
<path d="M0 0 C3.07365786 1.80803404 4.43019732 2.86039464 6 6 C6.77246787 12.81291335 6.1201717 18.40662738 2 24 C-1.81908811 27.98400328 -5.05172311 30.78160912 -10.7421875 31.203125 C-11.77601563 31.21859375 -12.80984375 31.2340625 -13.875 31.25 C-15.41800781 31.28867187 -15.41800781 31.28867187 -16.9921875 31.328125 C-20.408592 30.95542633 -22.23558589 29.9984308 -25 28 C-27.28951161 25.05634221 -27.42219069 21.89338806 -27.3125 18.21875 C-26.5366406 12.71014829 -24.26631075 7.75577043 -20.0625 4.0625 C-13.60025264 -0.28962577 -7.67341867 -0.89151752 0 0 Z M-11.625 8 C-15.42518132 11.20015269 -16.80938017 14.34796149 -17.375 19.25 C-17.25125 20.1575 -17.1275 21.065 -17 22 C-14.26167198 24.25641931 -14.26167198 24.25641931 -11.5625 23.875 C-8.4654227 22.81746141 -7.0679283 21.51105579 -5 19 C-3.8422494 15.52674819 -3.93133348 12.63932552 -4 9 C-7.05580267 7.34113569 -8.30137117 6.73385569 -11.625 8 Z " fill="#062553" transform="translate(175,24)"/>
<path d="M0 0 C1.084021 0.00523682 2.16804199 0.01047363 3.28491211 0.01586914 C5.03964844 0.02070313 5.03964844 0.02070313 6.82983398 0.02563477 C8.0615332 0.03401367 9.29323242 0.04239258 10.56225586 0.05102539 C12.41560547 0.05779297 12.41560547 0.05779297 14.30639648 0.06469727 C17.37089703 0.07652931 20.43530307 0.09301366 23.49975586 0.11352539 C22.39207715 5.95345368 21.48710524 8.91783446 16.74975586 12.80102539 C15.86030273 13.54610352 14.97084961 14.29118164 14.05444336 15.05883789 C13.21139648 15.73688477 12.36834961 16.41493164 11.49975586 17.11352539 C10.29041538 18.1331654 9.08186106 19.15374012 7.87475586 20.17602539 C7.09100586 20.81540039 6.30725586 21.45477539 5.49975586 22.11352539 C9.45975586 22.44352539 13.41975586 22.77352539 17.49975586 23.11352539 C17.16975586 25.75352539 16.83975586 28.39352539 16.49975586 31.11352539 C7.58975586 31.11352539 -1.32024414 31.11352539 -10.50024414 31.11352539 C-9.50024414 23.11352539 -9.50024414 23.11352539 -7.20727539 20.53930664 C-6.25208008 19.84192383 -5.29688477 19.14454102 -4.31274414 18.42602539 C-2.82774414 17.3084082 -2.82774414 17.3084082 -1.31274414 16.16821289 C0.07944336 15.15114258 0.07944336 15.15114258 1.49975586 14.11352539 C2.73867836 13.10455442 3.97040999 12.08651442 5.18725586 11.05102539 C5.95038086 10.41165039 6.71350586 9.77227539 7.49975586 9.11352539 C3.53975586 8.78352539 -0.42024414 8.45352539 -4.50024414 8.11352539 C-3.48776914 0.15836468 -3.48776914 0.15836468 0 0 Z " fill="#062654" transform="translate(126.500244140625,23.886474609375)"/>
<path d="M0 0 C-0.61430423 7.1293899 -2.49811668 13.66505166 -4.5625 20.5 C-4.89185547 21.60859375 -5.22121094 22.7171875 -5.56054688 23.859375 C-6.36808956 26.57459098 -7.18327422 29.28753212 -8 32 C-14.93 32 -21.86 32 -29 32 C-27.11101437 16.88811493 -27.11101437 16.88811493 -22.63232422 12.88232422 C-19.63605688 10.76197465 -16.58181034 8.83095068 -13.4375 6.9375 C-12.37080078 6.26267578 -11.30410156 5.58785156 -10.20507812 4.89257812 C-2.37794453 0 -2.37794453 0 0 0 Z " fill="#062554" transform="translate(29,23)"/>
<path d="M0 0 C2.97 0 5.94 0 9 0 C9.33 0.66 9.66 1.32 10 2 C10.99 1.34 11.98 0.68 13 0 C15.04296875 -0.1953125 15.04296875 -0.1953125 17.1875 -0.125 C19.0746875 -0.063125 19.0746875 -0.063125 21 0 C20.34 2.97 19.68 5.94 19 9 C16.75390625 9.16276042 14.5078125 9.32552083 12.26171875 9.48828125 C9.52759183 10.10688337 8.77821619 10.86854357 7 13 C6.14771769 15.0045783 6.14771769 15.0045783 5.61328125 17.23046875 C5.39736328 18.03291016 5.18144531 18.83535156 4.95898438 19.66210938 C4.74564453 20.49548828 4.53230469 21.32886719 4.3125 22.1875 C4.08755859 23.03248047 3.86261719 23.87746094 3.63085938 24.74804688 C3.07812219 26.8296316 2.53784601 28.91451804 2 31 C-1.3 31 -4.6 31 -8 31 C-6.900418 24.00266001 -5.33678484 17.25318048 -3.4375 10.4375 C-3.10455933 9.24084717 -3.10455933 9.24084717 -2.76489258 8.02001953 C-1.13945989 2.27891979 -1.13945989 2.27891979 0 0 Z " fill="#062553" transform="translate(189,24)"/>
</svg>
