<svg width="100" height="100" viewBox="0 0 100 100" fill="none" xmlns="http://www.w3.org/2000/svg">
<path d="M50.0002 20.0007C36.6665 20.0007 28.3334 26.6657 24.9996 39.9944C30.0002 33.3295 35.8337 30.831 42.4999 32.4966C46.3039 33.447 49.0224 36.2068 52.0323 39.2604C56.9341 44.2348 62.6075 49.9919 75.0009 49.9919C88.3334 49.9919 96.6677 43.3269 100 29.997C95.0009 36.662 89.1674 39.1616 82.4999 37.496C78.6973 36.5457 75.9787 33.7859 72.9689 30.7322C68.067 25.7579 62.3924 20.0007 50.0002 20.0007V20.0007ZM24.9996 49.9919C11.6671 49.9919 3.33274 56.6569 0.000244141 69.9869C4.99962 63.3219 10.8331 60.8222 17.5006 62.4891C21.3032 63.4407 24.0218 66.1992 27.0316 69.2516C31.9335 74.226 37.6081 79.9844 50.0002 79.9844C63.334 79.9844 71.6671 73.3194 75.0009 59.9894C70.0002 66.6544 64.1668 69.1541 57.5006 67.4872C53.6966 66.5381 50.9781 63.7771 47.9682 60.7247C43.0664 55.7503 37.393 49.9919 24.9996 49.9919V49.9919Z" fill="#06B6D4"/>
</svg>
