<svg width="200" height="200" viewBox="0 0 200 200" fill="none" xmlns="http://www.w3.org/2000/svg">
<g clip-path="url(#clip0_163_10)">
<path d="M42.6451 66.199V48.247H158.398V66.199H143.999V174.285L120.811 163.813V140.625C112.458 147.357 105.103 150.723 98.7451 150.723C96.7504 150.723 94.6934 150.411 92.5741 149.788C90.4547 149.04 88.2107 147.856 85.8421 146.235C83.4734 144.614 81.4164 143.181 79.6711 141.934C77.9257 140.563 75.6817 138.568 72.9391 135.95C70.3211 133.207 68.3264 131.213 66.9551 129.966C65.7084 128.595 63.6514 126.413 60.7841 123.421C58.0414 120.304 56.2961 118.372 55.5481 117.624C54.8001 116.876 54.4261 99.7343 54.4261 66.199H42.6451ZM77.8011 125.104C83.1617 130.34 90.4547 131.088 99.6801 127.348C108.905 123.608 115.949 117.624 120.811 109.396V66.199H77.4271L77.8011 125.104Z" fill="white"/>
</g>
<defs>
<clipPath id="clip0_163_10">
<rect width="200" height="200" fill="white"/>
</clipPath>
</defs>
</svg>
